<svg width="50" height="50" viewBox="0 0 50 50" fill="none" xmlns="http://www.w3.org/2000/svg">
<g clip-path="url(#clip0_176_652)">
<path d="M25 50C38.8071 50 50 38.8071 50 25C50 11.1929 38.8071 0 25 0C11.1929 0 0 11.1929 0 25C0 38.8071 11.1929 50 25 50Z" fill="#DEC1E5"/>
<path d="M39 16.7L37.4 15.1C36.6 14.3 35.4 14.3 34.7 15.1L22.4 27.4L15.3 20.3C14.7 19.7 13.7 19.7 13 20.3L10.9 22.4C10.3 23 10.3 24 10.9 24.7L21.2 35C21.8 35.6 22.8 35.6 23.5 35L25.6 32.9L25.7 32.8L39 19.4C39.8 18.7 39.8 17.5 39 16.7Z" fill="white"/>
</g>
<defs>
<clipPath id="clip0_176_652">
<rect width="50" height="50" fill="white"/>
</clipPath>
</defs>
</svg>
