<svg width="24" height="24" viewBox="0 0 24 24" fill="none" xmlns="http://www.w3.org/2000/svg">
<g clip-path="url(#clip0_149_2)">
<path d="M12.1 24C18.7 24 24 18.7 24 12.1C24 5.5 18.7 0.100001 12.1 0.100001C5.5 0.100002 0.0999988 5.5 0.0999993 12.1C0.0999999 18.7 5.5 24 12.1 24ZM12.1 1.8C17.8 1.8 22.4 6.4 22.4 12.1C22.4 17.8 17.8 22.4 12.1 22.4C6.4 22.4 1.8 17.8 1.8 12.1C1.8 6.4 6.4 1.8 12.1 1.8Z" fill="#FF5959"/>
<path d="M12.0999 20.1C13.0999 20.1 13.8999 19.3 13.8999 18.3C13.8999 17.3 13.0999 16.5 12.0999 16.5C11.0999 16.5 10.2999 17.3 10.2999 18.3C10.2999 19.2 11.0999 20.1 12.0999 20.1Z" fill="#FF5959"/>
<path d="M12.1 15.3C13.1 15.3 13.8 14.5 13.8 13.6L13.8 5.9C13.8 4.9 13 4.2 12.1 4.2C11.2 4.2 10.4 5 10.4 5.9L10.4 13.6C10.4 14.5 11.1 15.3 12.1 15.3Z" fill="#FF5959"/>
</g>
<defs>
<clipPath id="clip0_149_2">
<rect width="24" height="24" fill="white"/>
</clipPath>
</defs>
</svg>
