<svg width="24" height="24" viewBox="0 0 24 24" fill="none" xmlns="http://www.w3.org/2000/svg">
<path d="M8.6 4H6.5V6.1H8.6V4Z" fill="#3D3D3D"/>
<path d="M8.6 8.20001H6.5V10.3H8.6V8.20001Z" fill="#3D3D3D"/>
<path d="M10.6999 6.10004H8.59985V8.20004H10.6999V6.10004Z" fill="#3D3D3D"/>
<path d="M10.6999 10.3H8.59985V12.4H10.6999V10.3Z" fill="#3D3D3D"/>
<path d="M12.8 4H10.7V6.1H12.8V4Z" fill="#3D3D3D"/>
<path d="M12.8 8.20001H10.7V10.3H12.8V8.20001Z" fill="#3D3D3D"/>
<path d="M14.8998 10.3H12.7998V12.4H14.8998V10.3Z" fill="#3D3D3D"/>
<path d="M20.4999 13.5L19.4999 12.3L19.0999 11.9L17.5999 10.2L16.9999 9.60003L16.5999 9.10003C16.3999 8.80002 16.2999 8.50002 16.2999 8.20002C16.2999 8.00002 16.3999 7.80002 16.5999 7.60002L20.5999 3.00002C21.2999 2.20002 21.0999 1.60002 20.9999 1.30002C20.8999 1.10002 20.4999 0.500024 19.4999 0.500024L3.6999 0.400024H3.5999C3.1999 0.500024 2.8999 0.800024 2.8999 1.10002V22.8C2.8999 23.2 3.1999 23.5 3.5999 23.5C3.9999 23.5 4.2999 23.2 4.2999 22.8V15.8L19.2999 15.9C20.2999 15.9 20.6999 15.3 20.7999 15.1C20.8999 15 20.8999 14.7 20.8999 14.4C20.8999 14.2 20.7999 13.9 20.4999 13.5ZM19.0999 2.00002H19.4999C19.4999 2.00002 19.4999 2.00002 19.5999 2.00002C19.5999 2.00002 19.5999 2.00002 19.5999 2.10002L19.1999 2.60002V2.00002H19.0999ZM19.0999 14.4H16.9999V12.3H14.8999V14.4H12.7999V12.3H10.6999V14.4H8.5999V12.3H6.4999V14.4H4.3999V12.3H6.4999V10.2H4.3999V8.20002H6.4999V6.10002H4.3999V4.00002H6.4999V1.90002H8.5999V4.00002H10.6999V1.90002H12.7999V3.90002H14.8999V2.00002H16.9999V4.00002H17.7999L16.9999 4.90002V4.00002H14.8999V6.10002H15.8999L15.3999 6.60002C15.0999 6.90002 14.8999 7.30002 14.7999 7.70002V6.10002H12.6999V8.20002H14.6999C14.6999 8.50002 14.6999 8.70002 14.7999 9.00002V10.3H15.4999L16.8999 11.8V12.4H17.3999L18.8999 14.1V14.4H19.0999Z" fill="#3D3D3D"/>
</svg>
