<svg width="22" height="18" viewBox="0 0 22 18" fill="none" xmlns="http://www.w3.org/2000/svg">
<path d="M1.80005 2.5C2.35233 2.5 2.80005 2.05228 2.80005 1.5C2.80005 0.947715 2.35233 0.5 1.80005 0.5C1.24776 0.5 0.800049 0.947715 0.800049 1.5C0.800049 2.05228 1.24776 2.5 1.80005 2.5Z" fill="#C5C5C5"/>
<path d="M5.60005 2.39998H20.3C20.8 2.39998 21.2001 1.99998 21.2001 1.49998C21.2001 0.999976 20.8 0.599976 20.3 0.599976H5.60005C5.20005 0.599976 4.80005 0.999976 4.80005 1.49998C4.80005 1.99998 5.20005 2.39998 5.60005 2.39998Z" fill="#C5C5C5"/>
<path d="M1.80005 17.5C2.35233 17.5 2.80005 17.0523 2.80005 16.5C2.80005 15.9477 2.35233 15.5 1.80005 15.5C1.24776 15.5 0.800049 15.9477 0.800049 16.5C0.800049 17.0523 1.24776 17.5 1.80005 17.5Z" fill="#C5C5C5"/>
<path d="M20.3 15.6H5.59995C5.09995 15.6 4.69995 16 4.69995 16.5C4.69995 17 5.09995 17.4 5.59995 17.4H20.3C20.8 17.4 21.2 17 21.2 16.5C21.2 16 20.8 15.6 20.3 15.6Z" fill="#C5C5C5"/>
<path d="M1.80005 8C1.30005 8 0.800049 8.4 0.800049 9C0.800049 9.5 1.20005 10 1.80005 10C2.30005 10 2.80005 9.6 2.80005 9C2.80005 8.5 2.40005 8 1.80005 8Z" fill="#C5C5C5"/>
<path d="M20.3 8.09998H5.59995C5.09995 8.09998 4.69995 8.49998 4.69995 8.99998C4.69995 9.49998 5.09995 9.89997 5.59995 9.89997H20.3C20.8 9.89997 21.2 9.49998 21.2 8.99998C21.2 8.49998 20.8 8.09998 20.3 8.09998Z" fill="#C5C5C5"/>
</svg>
