<svg width="22" height="22" viewBox="0 0 22 22" fill="none" xmlns="http://www.w3.org/2000/svg">
<path d="M21.4 20L16.7 15.1L16.6 15C17.9 13.4 18.6 11.4 18.6 9.30001C18.6 4.20001 14.5 0.100006 9.39995 0.100006C4.29995 0.100006 0.199951 4.20001 0.199951 9.30001C0.199951 14.4 4.29995 18.5 9.39995 18.5C11.5 18.5 13.5 17.8 15 16.6L15.1 16.7L19.7999 21.6C19.9999 21.8 20.3 21.9 20.6 21.9C20.9 21.9 21.1 21.8 21.4 21.6C21.8 21.1 21.8 20.4 21.4 20ZM9.39995 16.3C5.49995 16.3 2.39995 13.2 2.39995 9.30001C2.39995 5.40001 5.49995 2.30001 9.39995 2.30001C13.3 2.30001 16.4 5.40001 16.4 9.30001C16.4 13.2 13.3 16.3 9.39995 16.3Z" fill="#C5C5C5"/>
</svg>
