<svg width="22" height="24" viewBox="0 0 22 24" fill="none" xmlns="http://www.w3.org/2000/svg">
<path d="M20.7001 22.2H4.6001L9.7001 19.6C9.8001 19.5 9.9001 19.5 10.0001 19.4L14.2001 13.8L19.4001 6.9C19.9001 6.3 20.0001 5.5 19.9001 4.7C19.8001 3.9 19.4001 3.3 18.7001 2.8L15.9001 0.7C15.3001 0.2 14.5001 -1.93715e-07 13.7001 0.0999998C12.9001 0.2 12.2001 0.6 11.8001 1.2L6.6001 8L2.4001 13.6C2.3001 13.7 2.3001 13.8 2.3001 14L0.600098 22.8C0.600098 22.9 0.600098 23 0.600098 23.1C0.600098 23.6 1.0001 24 1.5001 24H20.9001C21.4001 24 21.8001 23.6 21.8001 23.1C21.6001 22.6 21.2001 22.2 20.7001 22.2ZM14.2001 6.6L7.0001 16.1L6.3001 15.6L13.4001 6.1L14.2001 6.6ZM7.6001 18.7L4.2001 20.5L2.8001 19.5L3.5001 15.8L7.6001 18.7ZM9.1001 17.7L8.4001 17.2L15.5001 7.7L16.2001 8.2L12.8001 12.7L9.1001 17.7ZM13.9001 1.8C14.2001 1.8 14.6001 1.9 14.8001 2.1L17.6001 4.2C18.0001 4.4 18.1001 4.7 18.2001 5C18.3001 5.3 18.2001 5.6 18.0001 5.8L17.3001 6.8L12.5001 3.2L13.2001 2.2C13.3001 2 13.6001 1.8 13.9001 1.8ZM8.0001 9.1L11.4001 4.6L12.1001 5.1L5.0001 14.5L4.2001 14L8.0001 9.1Z" fill="#3D3D3D"/>
</svg>
