<svg width="20" height="20" viewBox="0 0 20 20" fill="none" xmlns="http://www.w3.org/2000/svg">
<path d="M10 0C4.50893 0 0 4.50893 0 10C0 15.4911 4.46429 20 10 20C15.5357 20 20 15.5357 20 10C20 4.50893 15.5357 0 10 0ZM5.89286 16.9643C6.07143 14.6429 7.85714 12.8125 10.0893 12.8125C12.2768 12.8125 14.0625 14.5982 14.2857 16.9196C13.0357 17.6786 11.6071 18.125 10.0446 18.125C8.52678 18.125 7.09821 17.6786 5.89286 16.9643ZM10.0893 10.6696C8.97321 10.6696 8.125 9.77679 8.125 8.70536C8.125 7.63393 9.01786 6.74107 10.0893 6.74107C11.1607 6.74107 12.0536 7.63393 12.0536 8.70536C12.0536 9.77679 11.1607 10.6696 10.0893 10.6696ZM15.9375 15.5357C15.4464 13.75 14.2411 12.3214 12.7232 11.5625C13.4821 10.8482 13.9732 9.82143 13.9732 8.70536C13.9732 6.5625 12.2321 4.82143 10.0893 4.82143C7.94643 4.82143 6.20536 6.51786 6.20536 8.66071C6.20536 9.77679 6.69643 10.8036 7.45536 11.5179C5.84821 12.3214 4.64286 13.7946 4.19643 15.625C2.76786 14.1518 1.91964 12.1875 1.91964 10C1.91964 5.53571 5.53571 1.91964 10 1.91964C14.4643 1.91964 18.0804 5.53571 18.0804 10C18.125 12.1429 17.2768 14.0625 15.9375 15.5357Z" fill="#8B8B8B"/>
</svg>
