<svg width="16" height="20" viewBox="0 0 16 20" fill="none" xmlns="http://www.w3.org/2000/svg">
<path d="M14.4322 11.6844V6.73774C14.4322 4.47761 12.5829 2.55864 10.01 1.87633C9.92965 0.810235 9.08543 0 8.0402 0C6.99497 0 6.15075 0.852879 6.07035 1.87633C3.45729 2.55864 1.56784 4.47761 1.56784 6.73774V11.6844C0.643216 12.1109 0 13.177 0 14.4563C0 16.0768 1.08543 17.3987 2.41206 17.3987H4.78392C4.98492 18.8486 6.35176 20 8 20C9.64824 20 11.0151 18.8486 11.2161 17.3987H13.5879C14.9146 17.3987 16 16.0768 16 14.4563C16 13.177 15.3568 12.1109 14.4322 11.6844ZM8 18.209C7.35678 18.209 6.75377 17.8678 6.55276 17.3987H9.44724C9.24623 17.8678 8.64322 18.209 8 18.209ZM13.5477 15.6077H2.45226C2.05025 15.6077 1.72864 15.0533 1.72864 14.4563C1.72864 13.774 2.09045 13.3049 2.45226 13.3049C2.93467 13.3049 3.29648 12.9211 3.29648 12.4094V6.73774C3.29648 4.9467 5.46734 3.45416 8 3.45416C10.5327 3.45416 12.7035 4.9467 12.7035 6.73774V12.2388V12.4094C12.7035 12.9211 13.1055 13.3049 13.5477 13.3049C13.9497 13.3049 14.2714 13.8593 14.2714 14.4563C14.2714 15.1386 13.9095 15.6077 13.5477 15.6077Z" fill="white"/>
</svg>
