<svg width="20" height="20" viewBox="0 0 20 20" fill="none" xmlns="http://www.w3.org/2000/svg">
<path d="M19.1905 6.38298C18.9099 6.14657 18.5825 5.86288 18.1615 5.5792L12.0813 0.70922C10.912 -0.236407 9.08796 -0.236407 7.91869 0.70922L1.83845 5.53192C1.41751 5.86288 1.09011 6.14657 0.809485 6.3357C0.295004 6.76123 -0.0791649 7.04492 0.0143772 7.61229C0.0143772 7.80142 0.0143772 8.41608 0.0143772 9.3617V16.7849C0.0143772 18.5343 1.41751 20 3.19481 20H16.8052C18.5357 20 19.9856 18.5816 19.9856 16.7849V9.3617C19.9856 8.46336 19.9856 7.8487 19.9856 7.61229C20.0792 7.0922 19.705 6.76123 19.1905 6.38298ZM11.6136 17.9669H8.059V13.3333C8.059 12.3404 8.85411 11.5366 9.8363 11.5366C10.8185 11.5366 11.6136 12.3404 11.6136 13.3333V17.9669ZM17.9745 8.03783C17.9745 8.36879 17.9745 8.84161 17.9745 9.3617V16.7849C17.9745 17.4468 17.46 17.9669 16.8052 17.9669H13.6248V13.3333C13.6248 11.2057 11.941 9.50355 9.8363 9.50355C7.7316 9.50355 6.04784 11.2057 6.04784 13.3333V17.9669H3.19481C2.54001 17.9669 2.02553 17.4468 2.02553 16.7849V9.3617C2.02553 8.84161 2.02553 8.36879 2.02553 8.03783C2.02553 7.99054 2.02553 7.99054 2.02553 7.94326C2.30616 7.75414 2.68033 7.42317 3.10127 7.0922L9.18151 2.2695C9.64922 1.89125 10.4443 1.89125 10.8653 2.2695L16.9455 7.0922C17.3664 7.42317 17.7406 7.75414 18.0212 7.94326C17.9745 7.99054 17.9745 8.03783 17.9745 8.03783Z" fill="white"/>
</svg>
