<svg width="24" height="24" viewBox="0 0 24 24" fill="none" xmlns="http://www.w3.org/2000/svg">
<path d="M12 2C6.50893 2 2 6.50893 2 12C2 17.4911 6.46429 22 12 22C17.5357 22 22 17.5357 22 12C22 6.50893 17.5357 2 12 2ZM7.89286 18.9643C8.07143 16.6429 9.85714 14.8125 12.0893 14.8125C14.2768 14.8125 16.0625 16.5982 16.2857 18.9196C15.0357 19.6786 13.6071 20.125 12.0446 20.125C10.5268 20.125 9.09821 19.6786 7.89286 18.9643ZM12.0893 12.6696C10.9732 12.6696 10.125 11.7768 10.125 10.7054C10.125 9.63393 11.0179 8.74107 12.0893 8.74107C13.1607 8.74107 14.0536 9.63393 14.0536 10.7054C14.0536 11.7768 13.1607 12.6696 12.0893 12.6696ZM17.9375 17.5357C17.4464 15.75 16.2411 14.3214 14.7232 13.5625C15.4821 12.8482 15.9732 11.8214 15.9732 10.7054C15.9732 8.5625 14.2321 6.82143 12.0893 6.82143C9.94643 6.82143 8.20536 8.51786 8.20536 10.6607C8.20536 11.7768 8.69643 12.8036 9.45536 13.5179C7.84821 14.3214 6.64286 15.7946 6.19643 17.625C4.76786 16.1518 3.91964 14.1875 3.91964 12C3.91964 7.53571 7.53571 3.91964 12 3.91964C16.4643 3.91964 20.0804 7.53571 20.0804 12C20.125 14.1429 19.2768 16.0625 17.9375 17.5357Z" fill="white"/>
</svg>
