<svg width="20" height="20" viewBox="0 0 20 20" fill="none" xmlns="http://www.w3.org/2000/svg">
<path d="M19.693 18.3178L15.2538 13.8318C15.2066 13.785 15.2066 13.785 15.1594 13.7383C16.34 12.2897 17.0484 10.4673 17.0484 8.45794C17.0484 3.78505 13.2231 0 8.50059 0C3.77804 0 0 3.78505 0 8.45794C0 13.1308 3.82527 16.9159 8.54782 16.9159C10.5313 16.9159 12.3259 16.2617 13.7898 15.1402C13.8371 15.1869 13.8371 15.1869 13.8843 15.2336L18.3235 19.7196C18.5124 19.9065 18.7957 20 19.0319 20C19.268 20 19.5514 19.9065 19.7403 19.7196C20.0708 19.3458 20.1181 18.7383 19.693 18.3178ZM8.54782 14.9065C4.95868 14.9065 2.0307 12.0093 2.0307 8.45794C2.0307 4.90654 4.91145 1.96262 8.54782 1.96262C12.1842 1.96262 15.0649 4.90654 15.0649 8.45794C15.0649 12.0093 12.137 14.9065 8.54782 14.9065Z" fill="#8B8B8B"/>
</svg>
